<mxfile host="app.diagrams.net" modified="2024-05-11T15:40:48.257Z" agent="Mozilla/5.0 (Windows NT 10.0; Win64; x64) AppleWebKit/537.36 (KHTML, like Gecko) Chrome/124.0.0.0 Safari/537.36" etag="0CJErVKUEjyXLE7vw6v8" version="24.4.0" type="github">
  <diagram name="Halaman-1" id="xsZlFlR__z4LUEdVzp3k">
    <mxGraphModel dx="733" dy="418" grid="1" gridSize="10" guides="1" tooltips="1" connect="1" arrows="1" fold="1" page="1" pageScale="1" pageWidth="827" pageHeight="1169" math="0" shadow="0">
      <root>
        <mxCell id="0" />
        <mxCell id="1" parent="0" />
        <mxCell id="9JSOq3yYz_er7Mso-Gnf-18" style="edgeStyle=orthogonalEdgeStyle;rounded=0;orthogonalLoop=1;jettySize=auto;html=1;exitX=1;exitY=0.5;exitDx=0;exitDy=0;entryX=0;entryY=0.5;entryDx=0;entryDy=0;" edge="1" parent="1" source="9JSOq3yYz_er7Mso-Gnf-2" target="9JSOq3yYz_er7Mso-Gnf-8">
          <mxGeometry relative="1" as="geometry" />
        </mxCell>
        <mxCell id="9JSOq3yYz_er7Mso-Gnf-19" style="edgeStyle=orthogonalEdgeStyle;rounded=0;orthogonalLoop=1;jettySize=auto;html=1;exitX=1;exitY=0.5;exitDx=0;exitDy=0;entryX=0;entryY=0.5;entryDx=0;entryDy=0;" edge="1" parent="1" source="9JSOq3yYz_er7Mso-Gnf-2" target="9JSOq3yYz_er7Mso-Gnf-9">
          <mxGeometry relative="1" as="geometry" />
        </mxCell>
        <mxCell id="9JSOq3yYz_er7Mso-Gnf-2" value="User command" style="rounded=0;whiteSpace=wrap;html=1;" vertex="1" parent="1">
          <mxGeometry x="210" y="245" width="120" height="60" as="geometry" />
        </mxCell>
        <mxCell id="9JSOq3yYz_er7Mso-Gnf-3" value="Input" style="text;html=1;align=center;verticalAlign=middle;whiteSpace=wrap;rounded=0;" vertex="1" parent="1">
          <mxGeometry x="250" y="180" width="60" height="30" as="geometry" />
        </mxCell>
        <mxCell id="9JSOq3yYz_er7Mso-Gnf-5" value="Proses" style="text;html=1;align=center;verticalAlign=middle;whiteSpace=wrap;rounded=0;" vertex="1" parent="1">
          <mxGeometry x="425" y="160" width="60" height="30" as="geometry" />
        </mxCell>
        <mxCell id="9JSOq3yYz_er7Mso-Gnf-6" value="Smartphone &amp;amp; Bycicle" style="rounded=0;whiteSpace=wrap;html=1;" vertex="1" parent="1">
          <mxGeometry x="580" y="245" width="120" height="60" as="geometry" />
        </mxCell>
        <mxCell id="9JSOq3yYz_er7Mso-Gnf-7" value="Output" style="text;html=1;align=center;verticalAlign=middle;whiteSpace=wrap;rounded=0;" vertex="1" parent="1">
          <mxGeometry x="610" y="210" width="60" height="30" as="geometry" />
        </mxCell>
        <mxCell id="9JSOq3yYz_er7Mso-Gnf-20" style="edgeStyle=orthogonalEdgeStyle;rounded=0;orthogonalLoop=1;jettySize=auto;html=1;exitX=1;exitY=0.5;exitDx=0;exitDy=0;entryX=0;entryY=0.5;entryDx=0;entryDy=0;" edge="1" parent="1" source="9JSOq3yYz_er7Mso-Gnf-8" target="9JSOq3yYz_er7Mso-Gnf-6">
          <mxGeometry relative="1" as="geometry" />
        </mxCell>
        <mxCell id="9JSOq3yYz_er7Mso-Gnf-8" value="Relay&amp;nbsp;" style="rounded=0;whiteSpace=wrap;html=1;" vertex="1" parent="1">
          <mxGeometry x="395" y="205" width="120" height="60" as="geometry" />
        </mxCell>
        <mxCell id="9JSOq3yYz_er7Mso-Gnf-21" style="edgeStyle=orthogonalEdgeStyle;rounded=0;orthogonalLoop=1;jettySize=auto;html=1;exitX=1;exitY=0.5;exitDx=0;exitDy=0;entryX=0;entryY=0.5;entryDx=0;entryDy=0;" edge="1" parent="1" source="9JSOq3yYz_er7Mso-Gnf-9" target="9JSOq3yYz_er7Mso-Gnf-6">
          <mxGeometry relative="1" as="geometry" />
        </mxCell>
        <mxCell id="9JSOq3yYz_er7Mso-Gnf-9" value="GPS" style="rounded=0;whiteSpace=wrap;html=1;" vertex="1" parent="1">
          <mxGeometry x="395" y="290" width="120" height="60" as="geometry" />
        </mxCell>
      </root>
    </mxGraphModel>
  </diagram>
</mxfile>
